<svg xmlns="http://www.w3.org/2000/svg" xmlns:xlink="http://www.w3.org/1999/xlink" width="500" zoomAndPan="magnify" viewBox="0 0 375 374.999991" height="500" preserveAspectRatio="xMidYMid meet" version="1.0"><defs><filter x="0%" y="0%" width="100%" height="100%" id="f475fe5973"><feColorMatrix values="0 0 0 0 1 0 0 0 0 1 0 0 0 0 1 0 0 0 1 0" color-interpolation-filters="sRGB"/></filter><g/><mask id="4d5f8145de"><g filter="url(#f475fe5973)"><rect x="-37.5" width="450" fill="#000000" y="-37.499999" height="449.999989" fill-opacity="0.2"/></g></mask><clipPath id="01d447a695"><path d="M 0.371094 0.015625 L 234.628906 0.015625 L 234.628906 234.273438 L 0.371094 234.273438 Z M 0.371094 0.015625 " clip-rule="nonzero"/></clipPath><clipPath id="6993bb90a0"><path d="M 117.5 0.015625 C 52.8125 0.015625 0.371094 52.453125 0.371094 117.144531 C 0.371094 181.832031 52.8125 234.273438 117.5 234.273438 C 182.1875 234.273438 234.628906 181.832031 234.628906 117.144531 C 234.628906 52.453125 182.1875 0.015625 117.5 0.015625 Z M 117.5 0.015625 " clip-rule="nonzero"/></clipPath><clipPath id="d35c5eb77e"><rect x="0" width="235" y="0" height="235"/></clipPath><clipPath id="57f598d9d1"><path d="M 78.296875 89.101562 L 296.546875 89.101562 L 296.546875 265 L 78.296875 265 Z M 78.296875 89.101562 " clip-rule="nonzero"/></clipPath><clipPath id="1815ad56d0"><path d="M 37.5 238.859375 L 337.5 238.859375 L 337.5 315 L 37.5 315 Z M 37.5 238.859375 " clip-rule="nonzero"/></clipPath></defs><g mask="url(#4d5f8145de)"><g transform="matrix(1, 0, 0, 1, 70, 60)"><g clip-path="url(#d35c5eb77e)"><g clip-path="url(#01d447a695)"><g clip-path="url(#6993bb90a0)"><path fill="#d3d3d3" d="M 0.371094 0.015625 L 234.628906 0.015625 L 234.628906 234.273438 L 0.371094 234.273438 Z M 0.371094 0.015625 " fill-opacity="1" fill-rule="nonzero"/></g></g></g></g></g><g clip-path="url(#57f598d9d1)"><path fill="#002431" d="M 296.117188 242.792969 C 294.621094 228.234375 293.105469 213.675781 291.222656 199.167969 C 289.59375 186.632812 287.867188 174.101562 285.289062 161.699219 C 283.945312 155.238281 284.136719 155.171875 277.667969 154.578125 C 276.1875 154.441406 275.261719 153.945312 274.84375 152.386719 C 273.910156 148.894531 272.761719 145.457031 271.808594 141.96875 C 270.191406 136.039062 268.496094 130.148438 265.316406 124.8125 C 264.65625 123.703125 263.941406 122.714844 262.457031 122.660156 C 258.679688 122.527344 254.890625 122.273438 251.140625 122.816406 C 244.917969 123.714844 238.667969 124.53125 232.519531 125.804688 C 217.210938 128.976562 201.71875 131.714844 188.621094 141.5 C 187.730469 136.136719 185.378906 131.460938 182.917969 126.800781 C 176.148438 113.996094 166.324219 104.640625 152.699219 99.382812 C 147.179688 97.25 141.707031 94.980469 136.757812 91.628906 C 135.789062 90.972656 134.667969 90.511719 133.574219 90.078125 C 131.050781 89.085938 129.828125 90.089844 130.328125 92.773438 C 130.609375 94.296875 131.078125 95.789062 131.460938 97.292969 C 133.726562 106.210938 134.570312 115.34375 135.628906 124.703125 C 131.824219 123.507812 128.355469 122.1875 124.777344 121.335938 C 114.382812 118.875 103.78125 118.882812 93.183594 118.996094 C 88.703125 119.046875 87.6875 120.191406 88.121094 124.679688 C 88.148438 124.972656 88.214844 125.261719 88.25 125.558594 C 89.253906 133.890625 89.105469 142.265625 89.238281 150.632812 C 89.25 151.1875 89.410156 152.027344 88.523438 151.964844 C 84.214844 151.648438 83.988281 154.773438 83.472656 157.757812 C 81.964844 166.46875 81.804688 175.308594 81.523438 184.082031 C 81.023438 199.769531 80.238281 215.441406 79.636719 231.125 C 79.320312 239.335938 79.003906 247.546875 78.605469 255.753906 C 78.398438 260.039062 79.042969 260.964844 83.230469 260.929688 C 97.601562 260.8125 111.957031 261.101562 126.324219 261.734375 C 138.679688 262.273438 151.0625 262.113281 163.433594 262.292969 C 168.621094 262.367188 173.777344 262.773438 178.917969 263.535156 C 185.222656 264.46875 191.550781 265.15625 197.9375 264.234375 C 207.539062 262.847656 217.164062 261.71875 226.839844 260.992188 C 233.257812 260.507812 239.65625 259.554688 246.082031 259.371094 C 261.546875 258.925781 277.023438 258.660156 292.460938 260.230469 C 295.609375 260.550781 296.613281 259.539062 296.574219 256.324219 C 296.515625 251.8125 296.578125 247.269531 296.117188 242.792969 Z M 296.117188 242.792969 " fill-opacity="1" fill-rule="nonzero"/></g><path fill="#325e70" d="M 292.097656 256.921875 C 280.117188 256.347656 268.128906 255.949219 256.125 256.050781 C 241.96875 256.171875 227.925781 257.738281 213.851562 258.988281 C 206.628906 259.632812 199.503906 261.167969 192.238281 261.308594 C 185.777344 261.433594 179.4375 260.070312 173.03125 259.464844 C 164.828125 258.695312 156.601562 258.984375 148.390625 258.804688 C 137.796875 258.574219 127.1875 259.1875 116.601562 258.609375 C 108.675781 258.175781 100.757812 258.230469 92.835938 258.320312 C 89.652344 258.355469 86.472656 258.519531 83.296875 258.695312 C 81.925781 258.769531 81.585938 258.367188 81.660156 256.925781 C 82.125 247.90625 82.472656 238.882812 82.835938 229.859375 C 83.453125 214.617188 83.992188 199.375 84.753906 184.144531 C 85.191406 175.371094 85.230469 166.527344 86.726562 157.820312 C 86.917969 156.707031 86.515625 154.808594 88.320312 154.929688 C 90.140625 155.050781 89.226562 156.84375 89.199219 157.804688 C 88.757812 173.4375 89.011719 189.074219 89.019531 204.710938 C 89.023438 211.765625 88.222656 218.730469 87.320312 225.707031 C 86.980469 228.34375 86.769531 231.03125 86.871094 233.679688 C 87.027344 237.75 87.105469 241.804688 86.691406 245.867188 C 86.570312 247.035156 86.585938 248.253906 86.769531 249.410156 C 87.230469 252.332031 88.492188 253.367188 91.3125 252.941406 C 107.382812 250.5 123.496094 251.070312 139.621094 252.09375 C 151.4375 252.84375 163.25 253.625 175.074219 254.257812 C 180.660156 254.558594 185.960938 256.308594 191.445312 257.132812 C 194.085938 257.53125 196.554688 257.472656 199.089844 256.773438 C 205.558594 254.988281 211.972656 252.933594 218.53125 251.566406 C 226.550781 249.890625 234.664062 248.710938 242.914062 248.410156 C 250.828125 248.121094 258.738281 247.53125 266.664062 247.753906 C 273.097656 247.9375 279.519531 248.351562 285.796875 249.992188 C 289.5 250.957031 289.707031 250.722656 290.535156 247.078125 C 290.941406 245.292969 291.6875 243.582031 292.277344 241.839844 C 292.039062 237.484375 290.378906 233.386719 289.972656 229.066406 C 289.925781 228.582031 289.230469 227.882812 290.214844 227.613281 C 290.949219 227.414062 291.792969 227.070312 291.882812 228.46875 C 292.046875 231.03125 292.355469 233.589844 292.589844 236.148438 C 292.746094 237.90625 292.878906 239.660156 293.027344 241.417969 C 293.320312 245.996094 293.589844 250.578125 293.933594 255.152344 C 294.042969 256.605469 293.617188 256.996094 292.097656 256.921875 Z M 285.621094 181.359375 C 285.539062 180.417969 285.746094 179.429688 285.195312 178.5625 C 285.195312 178.5625 285.195312 178.558594 285.195312 178.558594 C 284.226562 172.875 283.257812 167.191406 282.285156 161.511719 C 281.535156 157.128906 281.53125 157.128906 277.058594 156.65625 C 277 156.648438 276.933594 156.726562 276.734375 156.855469 C 279.390625 164.394531 282.0625 171.964844 284.734375 179.539062 C 284.878906 180.128906 285.019531 180.722656 285.164062 181.3125 C 285.355469 181.925781 285.546875 182.535156 285.816406 183.386719 C 286.0625 182.476562 286.203125 181.867188 285.621094 181.359375 Z M 285.621094 181.359375 " fill-opacity="1" fill-rule="nonzero"/><path fill="#4fb2dc" d="M 135.308594 94.949219 C 135.113281 94.601562 134.714844 94.28125 134.464844 94.585938 C 134.101562 95.023438 134.375 95.558594 134.746094 95.972656 C 134.839844 95.582031 134.863281 95.148438 135.308594 94.949219 Z M 135.308594 94.949219 " fill-opacity="1" fill-rule="nonzero"/><path fill="#d3d3d3" d="M 290.917969 222.660156 C 290.292969 218.5 290.03125 214.273438 289.257812 210.144531 C 287.1875 199.09375 284.394531 188.222656 280.710938 177.589844 C 277.1875 167.410156 273.4375 157.296875 270.1875 147.027344 C 268.054688 140.273438 266.703125 133.269531 263.304688 126.957031 C 263.035156 126.453125 263.128906 125.429688 262.164062 125.617188 C 259.078125 126.222656 255.957031 125.609375 252.863281 126.019531 C 241.195312 127.5625 229.597656 129.5 218.101562 132.042969 C 209.230469 134.003906 200.804688 137.054688 193.015625 141.785156 C 190.386719 143.382812 188.777344 145.339844 190.148438 148.613281 C 190.34375 149.074219 190.320312 149.628906 190.371094 150.144531 C 191.429688 160.898438 191.5 171.714844 192.671875 182.464844 C 193.585938 190.84375 194.316406 199.242188 195.117188 207.632812 C 196.15625 218.53125 197.515625 229.390625 199.339844 240.1875 C 200.0625 244.476562 200.160156 248.820312 200.242188 253.15625 C 200.601562 253.15625 200.773438 253.210938 200.871094 253.148438 C 202.683594 252.003906 204.53125 250.90625 206.285156 249.675781 C 218.492188 241.09375 231.863281 235.117188 246.535156 232.421875 C 260.785156 229.808594 274.785156 225.910156 289.214844 224.246094 C 290.089844 224.144531 291.15625 224.257812 290.917969 222.660156 Z M 200.894531 154.359375 C 205.304688 151.472656 210.082031 149.269531 215.105469 147.769531 C 221.949219 145.722656 228.828125 143.683594 235.882812 142.488281 C 241.992188 141.449219 248.175781 140.835938 254.324219 140.035156 C 255.242188 139.914062 256.085938 140.203125 256.925781 140.480469 C 257.628906 140.710938 258.09375 141.210938 257.933594 141.984375 C 257.757812 142.867188 257.070312 143.101562 256.242188 142.957031 C 252 142.453125 247.921875 143.898438 243.738281 144.070312 C 234.042969 144.46875 224.917969 147.597656 215.65625 150.027344 C 211.371094 151.152344 207.371094 153.113281 203.433594 155.152344 C 202.910156 155.421875 202.410156 155.753906 201.867188 155.972656 C 201.222656 156.230469 200.441406 156.898438 199.898438 156.003906 C 199.332031 155.0625 200.332031 154.726562 200.894531 154.359375 Z M 201.628906 174.132812 C 201.042969 174.28125 200.324219 174.882812 199.847656 174.066406 C 199.4375 173.363281 200.199219 173.027344 200.585938 172.648438 C 201.003906 172.242188 201.5 171.890625 202.007812 171.601562 C 211.902344 165.9375 222.175781 161.097656 233.1875 158.058594 C 239.234375 156.390625 245.4375 155.320312 251.726562 155.519531 C 254.824219 155.300781 257.820312 155.644531 260.789062 156.328125 C 261.625 156.519531 262.535156 156.578125 262.382812 157.703125 C 262.207031 158.988281 261.128906 158.78125 260.28125 158.640625 C 257.21875 158.128906 254.164062 158.070312 251.046875 158.058594 C 240.761719 158.015625 231.304688 161.121094 221.882812 164.726562 C 215.316406 167.234375 209.175781 170.617188 202.804688 173.527344 C 202.402344 173.710938 202.046875 174.027344 201.628906 174.132812 Z M 203.109375 193.925781 C 202.480469 193.257812 203.066406 192.835938 203.488281 192.46875 C 204.316406 191.734375 205.132812 190.960938 206.0625 190.378906 C 215.738281 184.339844 226.023438 179.597656 236.902344 176.175781 C 241.070312 174.867188 245.4375 174.488281 249.730469 173.898438 C 254.996094 173.175781 260.320312 172.847656 265.652344 172.917969 C 266.625 172.929688 267.640625 172.890625 267.816406 174.242188 C 267.578125 175.539062 266.574219 175.527344 265.601562 175.535156 C 262.050781 175.5625 258.507812 175.816406 254.964844 175.941406 C 240.226562 176.457031 226.855469 181.382812 214.070312 188.277344 C 210.828125 190.027344 207.671875 191.933594 204.476562 193.761719 C 204.046875 194.007812 203.621094 194.46875 203.109375 193.925781 Z M 205.703125 212.476562 C 205.136719 212.875 204.425781 213.300781 203.902344 212.742188 C 203.300781 212.09375 203.996094 211.539062 204.464844 211.09375 C 205.050781 210.53125 205.632812 209.929688 206.3125 209.507812 C 216.730469 203.058594 227.253906 196.800781 238.921875 192.8125 C 244.777344 190.8125 250.941406 190.539062 257.019531 189.820312 C 259 189.585938 261 189.527344 263.253906 189.367188 C 265.945312 189.890625 268.882812 189.734375 271.835938 189.375 C 272.695312 189.269531 274.074219 188.824219 274.234375 190.164062 C 274.402344 191.601562 273.046875 191.566406 272.003906 191.609375 C 268.527344 191.75 265.042969 191.773438 261.574219 192.042969 C 252.085938 192.773438 242.53125 193.152344 233.648438 197.242188 C 224.457031 201.472656 215.667969 206.433594 206.996094 211.621094 C 206.550781 211.886719 206.125 212.183594 205.703125 212.476562 Z M 275.117188 206.300781 C 273.488281 206.316406 271.859375 206.304688 270.230469 206.304688 C 260.117188 206.777344 250.035156 207.484375 240.246094 210.378906 C 237.96875 211.050781 235.863281 212.117188 233.769531 213.203125 C 228.53125 215.925781 223.289062 218.632812 218.074219 221.386719 C 215.378906 222.8125 213.058594 224.78125 210.671875 226.648438 C 210.089844 227.105469 209.503906 227.582031 208.851562 227.910156 C 208.253906 228.210938 207.476562 228.359375 207.019531 227.71875 C 206.492188 226.972656 206.914062 226.34375 207.566406 225.835938 C 211.832031 222.53125 215.949219 218.945312 220.917969 216.746094 C 224.839844 215.011719 228.636719 213.0625 232.414062 211.058594 C 239.238281 207.429688 246.671875 205.875 254.230469 204.988281 C 260.089844 204.296875 265.949219 203.359375 271.886719 203.527344 C 272.996094 203.558594 274.105469 203.515625 275.214844 203.539062 C 276.054688 203.558594 276.667969 203.914062 276.675781 204.847656 C 276.6875 205.875 276.066406 206.296875 275.117188 206.300781 Z M 188.410156 241.492188 C 190.53125 245.386719 192.558594 249.332031 194.835938 253.664062 C 191.195312 252.515625 187.816406 251.488281 184.835938 249.628906 C 178.167969 245.46875 171.398438 241.558594 164.085938 238.597656 C 150.804688 233.214844 137.265625 228.796875 123.007812 226.875 C 122.054688 226.746094 121.089844 226.667969 120.128906 226.648438 C 111.90625 226.484375 103.6875 226.3125 95.464844 226.222656 C 94.050781 226.207031 93.523438 225.980469 93.316406 224.34375 C 91.496094 210.164062 92.21875 195.933594 92.335938 181.71875 C 92.464844 166.078125 92.800781 150.4375 92.445312 134.800781 C 92.363281 131.253906 91.925781 127.714844 91.582031 124.179688 C 91.453125 122.84375 91.875 122.277344 93.257812 122.300781 C 107.195312 122.539062 121.113281 122.898438 134.496094 127.523438 C 135.203125 127.765625 135.929688 127.839844 136.003906 128.839844 C 136.320312 133.121094 136.675781 137.394531 137.050781 142.089844 C 134.019531 140.785156 131.3125 139.589844 128.421875 138.851562 C 120.507812 136.839844 112.480469 136.539062 104.390625 136.898438 C 104.242188 136.90625 104.0625 136.875 103.953125 136.949219 C 103.285156 137.375 101.800781 136.761719 101.941406 138.074219 C 102.054688 139.117188 103.296875 138.734375 104.011719 138.691406 C 112.3125 138.199219 120.347656 140.003906 128.417969 141.476562 C 131.125 141.96875 133.601562 143.160156 136.097656 144.277344 C 136.710938 144.550781 137.003906 144.828125 137.085938 145.523438 C 137.464844 148.628906 137.277344 151.742188 137.351562 154.851562 C 137.378906 155.96875 136.804688 156.078125 135.953125 155.875 C 126.996094 153.730469 117.890625 154.0625 108.796875 154.242188 C 106.28125 154.292969 103.773438 154.492188 101.261719 154.621094 C 100.328125 154.671875 99.328125 154.820312 99.285156 155.949219 C 99.242188 157.089844 100.210938 157.339844 101.164062 157.351562 C 102.640625 157.367188 104.125 157.390625 105.601562 157.328125 C 111.816406 157.070312 118.03125 156.820312 124.242188 156.488281 C 128.285156 156.269531 132.164062 157.25 136.089844 157.910156 C 137.035156 158.066406 137.367188 158.605469 137.371094 159.609375 C 137.382812 164.355469 137.449219 169.097656 137.578125 173.839844 C 137.617188 175.253906 137.050781 175.285156 135.980469 174.902344 C 125.085938 171 113.863281 171.597656 102.617188 172.460938 C 102.324219 172.484375 101.992188 172.484375 101.753906 172.625 C 101.171875 172.960938 100.023438 172.703125 100.136719 173.773438 C 100.238281 174.726562 101.164062 174.667969 101.902344 174.664062 C 103.53125 174.65625 105.164062 174.574219 106.792969 174.609375 C 113.527344 174.765625 120.292969 173.992188 126.980469 175.164062 C 130.171875 175.722656 133.296875 176.648438 136.453125 177.414062 C 137.328125 177.628906 137.816406 178.050781 137.804688 179.09375 C 137.75 183.542969 137.753906 187.992188 137.804688 192.4375 C 137.820312 193.699219 137.375 193.828125 136.214844 193.71875 C 126.972656 192.859375 117.859375 190.320312 108.457031 191.53125 C 106.042969 191.839844 103.625 192.160156 101.207031 192.453125 C 100.710938 192.511719 100.253906 192.761719 100.214844 193.171875 C 100.160156 193.773438 100.765625 194.097656 101.246094 194.144531 C 102.347656 194.253906 103.476562 194.335938 104.570312 194.203125 C 112.726562 193.191406 120.796875 193.628906 128.839844 195.28125 C 131.214844 195.769531 133.679688 195.8125 136.105469 196.0625 C 137.324219 196.1875 137.886719 196.746094 137.816406 198.085938 C 137.703125 200.230469 137.816406 202.386719 137.78125 204.535156 C 137.75 206.074219 138.445312 207.109375 139.847656 207.609375 C 141.652344 208.257812 143.464844 208.941406 145.332031 209.375 C 149.722656 210.386719 153.675781 212.367188 157.519531 214.617188 C 157.835938 214.800781 158.1875 214.957031 158.230469 215.570312 C 154.371094 214.515625 150.570312 213.453125 146.695312 212.664062 C 135.476562 210.382812 124.160156 209.339844 112.71875 209.863281 C 110.066406 209.984375 107.429688 210.386719 104.785156 210.660156 C 104.246094 210.714844 103.6875 210.804688 103.691406 211.492188 C 103.699219 212.160156 104.328125 212.34375 104.789062 212.378906 C 106.042969 212.472656 107.3125 212.519531 108.5625 212.429688 C 120.453125 211.5625 132.152344 212.765625 143.886719 214.816406 C 154.074219 216.601562 163.152344 220.367188 171.878906 225.863281 C 177.105469 229.152344 181.867188 232.664062 185.722656 237.421875 C 186.742188 238.679688 187.632812 240.066406 188.410156 241.492188 Z M 193.871094 223.234375 C 192.820312 214.574219 191.910156 205.898438 191.042969 197.21875 C 189.921875 186.035156 188.640625 174.859375 188.191406 163.621094 C 187.910156 156.605469 187.515625 149.605469 186.09375 142.730469 C 184.445312 134.742188 180.277344 127.824219 175.535156 121.421875 C 170.632812 114.800781 164.632812 109.222656 157.027344 105.503906 C 149.796875 101.96875 141.984375 99.617188 135.308594 94.949219 C 134.863281 95.148438 134.839844 95.582031 134.742188 95.972656 C 138.871094 115.898438 140.582031 136.085938 140.902344 156.386719 C 141.144531 171.574219 141.097656 186.761719 141.046875 201.949219 C 141.039062 203.984375 141.726562 204.859375 143.5625 205.335938 C 147.707031 206.414062 151.824219 207.53125 155.675781 209.554688 C 162.277344 213.03125 167.835938 217.972656 173.949219 222.117188 C 183.988281 228.929688 191.5625 237.613281 196.070312 248.914062 C 196.226562 249.304688 196.269531 249.957031 197.148438 249.867188 C 197.011719 247.859375 196.988281 245.855469 196.726562 243.882812 C 195.808594 236.996094 194.703125 230.128906 193.871094 223.234375 Z M 144.59375 112.109375 C 145.019531 111.015625 146.058594 111.617188 146.898438 111.824219 C 150.515625 112.71875 153.46875 114.824219 156.308594 117.070312 C 160.597656 120.460938 164.792969 123.949219 168.738281 127.777344 C 173.039062 131.945312 176.039062 136.816406 178.386719 142.207031 C 179.296875 144.300781 180.101562 146.445312 181.449219 148.324219 C 181.789062 148.796875 181.980469 149.371094 182.179688 149.769531 C 182.199219 150.5 182.039062 150.960938 181.417969 151.101562 C 180.730469 151.253906 180.351562 150.90625 180.011719 150.320312 C 178.824219 148.285156 177.574219 146.277344 176.671875 144.089844 C 173.226562 135.738281 167.542969 129.15625 160.496094 123.652344 C 157.640625 121.425781 154.824219 119.144531 151.957031 116.929688 C 150.199219 115.570312 148.28125 114.46875 146.160156 113.75 C 145.347656 113.476562 144.132812 113.300781 144.59375 112.109375 Z M 145.824219 128.847656 C 145.925781 128.125 146.503906 128.210938 147.042969 128.308594 C 149.976562 128.941406 152.769531 130.089844 154.957031 132.066406 C 162.800781 139.160156 170.695312 146.214844 177.125 154.703125 C 179.296875 157.570312 180.121094 161.121094 182.164062 164.039062 C 182.527344 164.554688 182.582031 165.230469 182 165.625 C 181.394531 166.039062 180.859375 165.675781 180.507812 165.128906 C 179.988281 164.320312 179.445312 163.519531 179.03125 162.660156 C 176.300781 156.980469 172.363281 152.257812 167.816406 147.933594 C 163.855469 144.160156 160.125 140.140625 156.316406 136.203125 C 153.648438 133.445312 150.503906 131.445312 146.957031 130.019531 C 146.453125 129.820312 145.71875 129.625 145.824219 128.847656 Z M 147.289062 145.316406 C 147.40625 144.859375 147.828125 144.902344 148.363281 144.902344 C 149.308594 145.28125 150.421875 145.679688 151.488281 146.167969 C 158.175781 149.253906 163.488281 154.148438 168.628906 159.257812 C 173.929688 164.53125 178.796875 170.164062 182.6875 176.585938 C 183.070312 177.214844 183.550781 177.792969 183.894531 178.441406 C 184.242188 179.09375 184.554688 179.929688 183.742188 180.386719 C 183.015625 180.796875 182.554688 180.09375 182.15625 179.546875 C 180.769531 177.632812 179.351562 175.742188 177.992188 173.808594 C 172.113281 165.464844 164.738281 158.558594 157.042969 151.96875 C 154.441406 149.738281 151.273438 148.414062 148.304688 146.773438 C 147.707031 146.4375 147.058594 146.175781 147.289062 145.316406 Z M 148.246094 165.101562 C 148.492188 164.480469 149.085938 164.382812 149.75 164.605469 C 150.941406 165.007812 152.140625 165.375 153.1875 166.09375 C 160.605469 171.195312 168.683594 175.359375 175.347656 181.539062 C 176 182.140625 176.699219 182.714844 177.222656 183.417969 C 179.199219 186.089844 181.039062 188.851562 183.613281 191.046875 C 184.664062 191.945312 185.289062 193.285156 185.789062 194.605469 C 185.792969 195.015625 185.648438 195.351562 185.273438 195.511719 C 184.726562 195.746094 184.203125 195.609375 183.910156 195.113281 C 181.925781 191.761719 178.492188 189.726562 176.328125 186.472656 C 173.492188 182.210938 169.058594 179.507812 164.910156 176.753906 C 160.90625 174.097656 156.957031 171.375 152.992188 168.664062 C 151.714844 167.789062 150.332031 167.078125 149 166.285156 C 148.546875 166.015625 148.015625 165.664062 148.246094 165.101562 Z M 187.746094 215.847656 C 187.253906 216.167969 186.757812 216.09375 186.3125 215.734375 C 186.082031 215.550781 185.847656 215.351562 185.683594 215.113281 C 180.964844 208.140625 174.453125 203.070312 167.9375 197.917969 C 163.242188 194.207031 158.144531 191.347656 152.820312 188.765625 C 152.007812 188.371094 150.34375 188.257812 150.972656 186.863281 C 151.558594 185.566406 152.894531 186.535156 153.710938 186.890625 C 159.210938 189.257812 164.5625 191.839844 169.261719 195.703125 C 173.945312 199.554688 178.835938 203.140625 183.054688 207.542969 C 184.8125 209.375 186.207031 211.453125 187.710938 213.460938 C 187.964844 213.800781 188.089844 214.242188 188.1875 214.453125 C 188.230469 215.128906 188.164062 215.574219 187.746094 215.847656 Z M 173.820312 247.175781 C 174.402344 247.464844 174.941406 247.835938 175.5 248.171875 C 175.4375 248.289062 175.375 248.410156 175.308594 248.53125 C 168.421875 246.679688 161.5625 244.6875 154.632812 243.007812 C 145.871094 240.882812 137.015625 239.488281 127.960938 239 C 117.546875 238.4375 107.304688 239.519531 97.039062 240.851562 C 95.0625 241.109375 93.058594 241.15625 91.074219 241.363281 C 90.101562 241.464844 89.785156 241.144531 89.796875 240.15625 C 89.84375 236.386719 89.816406 232.613281 89.816406 228.445312 C 91.796875 229.796875 93.6875 229.488281 95.53125 229.515625 C 105.371094 229.652344 115.289062 229.429688 125 230.875 C 142.167969 233.429688 158.335938 239.382812 173.820312 247.175781 Z M 172.515625 250.28125 C 173.140625 250.421875 173.742188 250.664062 174.355469 250.863281 C 161.320312 250.78125 148.347656 249.496094 135.34375 249.027344 C 124.390625 248.632812 113.40625 248.890625 102.441406 249.058594 C 99.0625 249.113281 95.652344 249.414062 92.304688 250.144531 C 89.898438 250.667969 89.390625 250.230469 89.394531 247.734375 C 89.402344 243.914062 88.40625 243.96875 93.070312 243.707031 C 99.574219 243.347656 105.992188 242.171875 112.496094 241.742188 C 121.847656 241.128906 131.113281 241.410156 140.382812 242.824219 C 151.292969 244.488281 161.796875 247.824219 172.515625 250.28125 Z M 288.382812 244.34375 C 287.402344 247.433594 287.519531 247.457031 284.253906 246.757812 C 274.765625 244.726562 265.148438 244.746094 255.527344 245.121094 C 249.691406 245.347656 243.863281 245.789062 238.039062 246.171875 C 229.316406 246.746094 220.769531 248.386719 212.28125 250.382812 C 211.515625 250.917969 210.675781 251.15625 209.578125 251.175781 C 210.273438 250.398438 211.019531 250.183594 211.757812 249.949219 C 224.90625 244.960938 238.316406 240.808594 252.355469 239.445312 C 264.125 238.304688 275.871094 238.878906 287.324219 242.347656 C 288.4375 242.6875 288.800781 243.027344 288.382812 244.34375 Z M 288.828125 238.359375 C 289.199219 239.691406 288.769531 239.777344 287.691406 239.441406 C 278.402344 236.535156 268.84375 235.902344 259.195312 236.125 C 248.390625 236.375 238.019531 238.976562 227.734375 242.019531 C 227.3125 242.144531 226.878906 242.226562 226.449219 242.328125 C 225.648438 242.9375 224.707031 243.140625 223.742188 243.289062 C 223.433594 243.765625 223.035156 243.792969 222.527344 243.582031 C 222.777344 243.027344 223.304688 243.050781 223.699219 242.855469 C 223.714844 242.839844 223.730469 242.832031 223.75 242.832031 C 224.496094 242.53125 225.242188 242.230469 225.988281 241.929688 C 236.824219 237.070312 248.394531 235.042969 259.976562 233.007812 C 267.109375 231.75 274.195312 230.222656 281.292969 228.78125 C 286.964844 227.628906 286.949219 227.605469 287.855469 233.359375 C 288.121094 235.039062 288.375 236.730469 288.828125 238.359375 Z M 288.828125 238.359375 " fill-opacity="1" fill-rule="nonzero"/><g clip-path="url(#1815ad56d0)"><path fill="#073b4c" d="M 337.46875 238.859375 L 37.53125 238.859375 L 65.242188 276.953125 L 37.53125 314.984375 L 337.46875 314.984375 L 309.757812 276.953125 Z M 337.46875 238.859375 " fill-opacity="1" fill-rule="nonzero"/></g><g fill="#ffffff" fill-opacity="1"><g transform="translate(138.142904, 299.435107)"><g><path d="M 1.671875 0 L 1.671875 -11.0625 L 5.859375 -11.0625 C 6.546875 -11.0625 7.125 -10.953125 7.59375 -10.734375 C 8.070312 -10.523438 8.429688 -10.21875 8.671875 -9.8125 C 8.910156 -9.40625 9.03125 -8.925781 9.03125 -8.375 C 9.03125 -7.894531 8.898438 -7.460938 8.640625 -7.078125 C 8.378906 -6.691406 8.003906 -6.390625 7.515625 -6.171875 L 7.515625 -6.015625 C 8.253906 -5.828125 8.8125 -5.492188 9.1875 -5.015625 C 9.570312 -4.535156 9.765625 -3.929688 9.765625 -3.203125 C 9.765625 -2.179688 9.460938 -1.390625 8.859375 -0.828125 C 8.265625 -0.273438 7.375 0 6.1875 0 Z M 5.8125 -6.421875 C 6.414062 -6.421875 6.882812 -6.578125 7.21875 -6.890625 C 7.5625 -7.210938 7.734375 -7.65625 7.734375 -8.21875 C 7.734375 -8.8125 7.570312 -9.253906 7.25 -9.546875 C 6.925781 -9.835938 6.445312 -9.984375 5.8125 -9.984375 L 2.96875 -9.984375 L 2.96875 -6.421875 Z M 6.078125 -1.078125 C 7.660156 -1.078125 8.453125 -1.785156 8.453125 -3.203125 C 8.453125 -4.628906 7.660156 -5.34375 6.078125 -5.34375 L 2.96875 -5.34375 L 2.96875 -1.078125 Z M 6.078125 -1.078125 "/></g></g></g><g fill="#ffffff" fill-opacity="1"><g transform="translate(148.786218, 299.435107)"><g><path d="M 6.0625 0.15625 C 5.101562 0.15625 4.25 -0.046875 3.5 -0.453125 C 2.757812 -0.867188 2.175781 -1.503906 1.75 -2.359375 C 1.320312 -3.210938 1.109375 -4.269531 1.109375 -5.53125 C 1.109375 -6.800781 1.320312 -7.859375 1.75 -8.703125 C 2.175781 -9.554688 2.757812 -10.1875 3.5 -10.59375 C 4.25 -11.007812 5.101562 -11.21875 6.0625 -11.21875 C 7.03125 -11.21875 7.882812 -11.007812 8.625 -10.59375 C 9.375 -10.1875 9.960938 -9.554688 10.390625 -8.703125 C 10.816406 -7.859375 11.03125 -6.800781 11.03125 -5.53125 C 11.03125 -4.269531 10.816406 -3.210938 10.390625 -2.359375 C 9.960938 -1.503906 9.375 -0.867188 8.625 -0.453125 C 7.882812 -0.046875 7.03125 0.15625 6.0625 0.15625 Z M 6.0625 -1.046875 C 7.21875 -1.046875 8.101562 -1.40625 8.71875 -2.125 C 9.332031 -2.84375 9.640625 -3.976562 9.640625 -5.53125 C 9.640625 -7.082031 9.332031 -8.21875 8.71875 -8.9375 C 8.101562 -9.65625 7.21875 -10.015625 6.0625 -10.015625 C 3.6875 -10.015625 2.5 -8.519531 2.5 -5.53125 C 2.5 -2.539062 3.6875 -1.046875 6.0625 -1.046875 Z M 6.0625 -1.046875 "/></g></g></g><g fill="#ffffff" fill-opacity="1"><g transform="translate(160.919747, 299.435107)"><g><path d="M 6.0625 0.15625 C 5.101562 0.15625 4.25 -0.046875 3.5 -0.453125 C 2.757812 -0.867188 2.175781 -1.503906 1.75 -2.359375 C 1.320312 -3.210938 1.109375 -4.269531 1.109375 -5.53125 C 1.109375 -6.800781 1.320312 -7.859375 1.75 -8.703125 C 2.175781 -9.554688 2.757812 -10.1875 3.5 -10.59375 C 4.25 -11.007812 5.101562 -11.21875 6.0625 -11.21875 C 7.03125 -11.21875 7.882812 -11.007812 8.625 -10.59375 C 9.375 -10.1875 9.960938 -9.554688 10.390625 -8.703125 C 10.816406 -7.859375 11.03125 -6.800781 11.03125 -5.53125 C 11.03125 -4.269531 10.816406 -3.210938 10.390625 -2.359375 C 9.960938 -1.503906 9.375 -0.867188 8.625 -0.453125 C 7.882812 -0.046875 7.03125 0.15625 6.0625 0.15625 Z M 6.0625 -1.046875 C 7.21875 -1.046875 8.101562 -1.40625 8.71875 -2.125 C 9.332031 -2.84375 9.640625 -3.976562 9.640625 -5.53125 C 9.640625 -7.082031 9.332031 -8.21875 8.71875 -8.9375 C 8.101562 -9.65625 7.21875 -10.015625 6.0625 -10.015625 C 3.6875 -10.015625 2.5 -8.519531 2.5 -5.53125 C 2.5 -2.539062 3.6875 -1.046875 6.0625 -1.046875 Z M 6.0625 -1.046875 "/></g></g></g><g fill="#ffffff" fill-opacity="1"><g transform="translate(173.053276, 299.435107)"><g><path d="M 2.96875 0 L 1.671875 0 L 1.671875 -11.0625 L 2.96875 -11.0625 L 2.96875 -6.234375 L 3.203125 -6.234375 L 7.75 -11.0625 L 9.171875 -11.0625 L 9.171875 -10.875 L 4.375 -5.703125 L 9.546875 -0.1875 L 9.546875 0 L 8.0625 0 L 3.203125 -5.09375 L 2.96875 -5.09375 Z M 2.96875 0 "/></g></g></g><g fill="#ffffff" fill-opacity="1"><g transform="translate(182.811538, 299.435107)"><g/></g></g><g fill="#ffffff" fill-opacity="1"><g transform="translate(186.608939, 299.435107)"><g><path d="M 4.84375 0.15625 C 4.144531 0.15625 3.519531 0.0625 2.96875 -0.125 C 2.414062 -0.3125 1.953125 -0.554688 1.578125 -0.859375 C 1.210938 -1.171875 0.9375 -1.515625 0.75 -1.890625 L 1.46875 -2.75 L 1.65625 -2.75 C 2.34375 -1.59375 3.40625 -1.015625 4.84375 -1.015625 C 5.664062 -1.015625 6.28125 -1.1875 6.6875 -1.53125 C 7.09375 -1.882812 7.296875 -2.367188 7.296875 -2.984375 C 7.296875 -3.347656 7.226562 -3.65625 7.09375 -3.90625 C 6.96875 -4.164062 6.75 -4.382812 6.4375 -4.5625 C 6.132812 -4.738281 5.71875 -4.894531 5.1875 -5.03125 L 3.890625 -5.34375 C 2.921875 -5.570312 2.207031 -5.941406 1.75 -6.453125 C 1.300781 -6.960938 1.078125 -7.601562 1.078125 -8.375 C 1.078125 -8.925781 1.21875 -9.414062 1.5 -9.84375 C 1.78125 -10.28125 2.191406 -10.617188 2.734375 -10.859375 C 3.285156 -11.097656 3.9375 -11.21875 4.6875 -11.21875 C 5.519531 -11.21875 6.222656 -11.097656 6.796875 -10.859375 C 7.367188 -10.628906 7.828125 -10.28125 8.171875 -9.8125 L 7.53125 -8.96875 L 7.34375 -8.96875 C 7.03125 -9.351562 6.65625 -9.632812 6.21875 -9.8125 C 5.789062 -10 5.28125 -10.09375 4.6875 -10.09375 C 3.925781 -10.09375 3.347656 -9.941406 2.953125 -9.640625 C 2.566406 -9.347656 2.375 -8.9375 2.375 -8.40625 C 2.375 -7.90625 2.515625 -7.507812 2.796875 -7.21875 C 3.085938 -6.925781 3.570312 -6.695312 4.25 -6.53125 L 5.578125 -6.21875 C 6.648438 -5.957031 7.425781 -5.566406 7.90625 -5.046875 C 8.394531 -4.523438 8.640625 -3.859375 8.640625 -3.046875 C 8.640625 -2.421875 8.5 -1.867188 8.21875 -1.390625 C 7.9375 -0.910156 7.507812 -0.53125 6.9375 -0.25 C 6.363281 0.0195312 5.664062 0.15625 4.84375 0.15625 Z M 4.84375 0.15625 "/></g></g></g><g fill="#ffffff" fill-opacity="1"><g transform="translate(196.087313, 299.435107)"><g><path d="M 8.640625 -11.0625 L 8.640625 -9.953125 L 5.171875 -9.953125 L 5.171875 0 L 3.875 0 L 3.875 -9.953125 L 0.40625 -9.953125 L 0.40625 -11.0625 Z M 8.640625 -11.0625 "/></g></g></g><g fill="#ffffff" fill-opacity="1"><g transform="translate(205.119379, 299.435107)"><g><path d="M 6.0625 0.15625 C 5.101562 0.15625 4.25 -0.046875 3.5 -0.453125 C 2.757812 -0.867188 2.175781 -1.503906 1.75 -2.359375 C 1.320312 -3.210938 1.109375 -4.269531 1.109375 -5.53125 C 1.109375 -6.800781 1.320312 -7.859375 1.75 -8.703125 C 2.175781 -9.554688 2.757812 -10.1875 3.5 -10.59375 C 4.25 -11.007812 5.101562 -11.21875 6.0625 -11.21875 C 7.03125 -11.21875 7.882812 -11.007812 8.625 -10.59375 C 9.375 -10.1875 9.960938 -9.554688 10.390625 -8.703125 C 10.816406 -7.859375 11.03125 -6.800781 11.03125 -5.53125 C 11.03125 -4.269531 10.816406 -3.210938 10.390625 -2.359375 C 9.960938 -1.503906 9.375 -0.867188 8.625 -0.453125 C 7.882812 -0.046875 7.03125 0.15625 6.0625 0.15625 Z M 6.0625 -1.046875 C 7.21875 -1.046875 8.101562 -1.40625 8.71875 -2.125 C 9.332031 -2.84375 9.640625 -3.976562 9.640625 -5.53125 C 9.640625 -7.082031 9.332031 -8.21875 8.71875 -8.9375 C 8.101562 -9.65625 7.21875 -10.015625 6.0625 -10.015625 C 3.6875 -10.015625 2.5 -8.519531 2.5 -5.53125 C 2.5 -2.539062 3.6875 -1.046875 6.0625 -1.046875 Z M 6.0625 -1.046875 "/></g></g></g><g fill="#ffffff" fill-opacity="1"><g transform="translate(217.252908, 299.435107)"><g><path d="M 1.671875 0 L 1.671875 -11.0625 L 5.6875 -11.0625 C 6.425781 -11.0625 7.046875 -10.9375 7.546875 -10.6875 C 8.054688 -10.445312 8.4375 -10.101562 8.6875 -9.65625 C 8.945312 -9.207031 9.078125 -8.679688 9.078125 -8.078125 C 9.078125 -7.390625 8.90625 -6.820312 8.5625 -6.375 C 8.21875 -5.925781 7.679688 -5.59375 6.953125 -5.375 L 6.953125 -5.21875 C 7.316406 -5.070312 7.609375 -4.847656 7.828125 -4.546875 C 8.054688 -4.242188 8.269531 -3.789062 8.46875 -3.1875 L 9.484375 0 L 8.140625 0 L 7.03125 -3.390625 C 6.90625 -3.785156 6.753906 -4.09375 6.578125 -4.3125 C 6.410156 -4.539062 6.195312 -4.707031 5.9375 -4.8125 C 5.675781 -4.914062 5.34375 -4.96875 4.9375 -4.96875 L 2.96875 -4.96875 L 2.96875 0 Z M 5.65625 -6.0625 C 6.351562 -6.0625 6.867188 -6.222656 7.203125 -6.546875 C 7.546875 -6.867188 7.71875 -7.359375 7.71875 -8.015625 C 7.71875 -8.671875 7.546875 -9.15625 7.203125 -9.46875 C 6.867188 -9.789062 6.351562 -9.953125 5.65625 -9.953125 L 2.96875 -9.953125 L 2.96875 -6.0625 Z M 5.65625 -6.0625 "/></g></g></g><g fill="#ffffff" fill-opacity="1"><g transform="translate(227.4953, 299.435107)"><g><path d="M 2.96875 -5.21875 L 2.96875 -1.078125 L 8.609375 -1.078125 L 8.609375 0 L 1.671875 0 L 1.671875 -11.0625 L 8.484375 -11.0625 L 8.484375 -9.984375 L 2.96875 -9.984375 L 2.96875 -6.296875 L 7.84375 -6.296875 L 7.84375 -5.21875 Z M 2.96875 -5.21875 "/></g></g></g><g fill="#ffffff" fill-opacity="1"><g transform="translate(92.961879, 277.18731)"><g><path d="M 10.578125 0.34375 C 8.921875 0.34375 7.445312 0.140625 6.15625 -0.265625 C 4.875 -0.671875 3.800781 -1.207031 2.9375 -1.875 C 2.070312 -2.539062 1.414062 -3.269531 0.96875 -4.0625 L 3.5625 -7.234375 L 3.96875 -7.234375 C 4.6875 -6.160156 5.597656 -5.304688 6.703125 -4.671875 C 7.804688 -4.046875 9.097656 -3.734375 10.578125 -3.734375 C 11.835938 -3.734375 12.785156 -4 13.421875 -4.53125 C 14.066406 -5.070312 14.390625 -5.804688 14.390625 -6.734375 C 14.390625 -7.304688 14.285156 -7.78125 14.078125 -8.15625 C 13.878906 -8.539062 13.539062 -8.867188 13.0625 -9.140625 C 12.582031 -9.410156 11.929688 -9.644531 11.109375 -9.84375 L 8.046875 -10.546875 C 5.898438 -11.035156 4.300781 -11.847656 3.25 -12.984375 C 2.207031 -14.117188 1.6875 -15.59375 1.6875 -17.40625 C 1.6875 -18.757812 2.019531 -19.945312 2.6875 -20.96875 C 3.363281 -21.988281 4.347656 -22.78125 5.640625 -23.34375 C 6.929688 -23.914062 8.472656 -24.203125 10.265625 -24.203125 C 12.097656 -24.203125 13.671875 -23.957031 14.984375 -23.46875 C 16.296875 -22.988281 17.40625 -22.25 18.3125 -21.25 L 15.984375 -18.046875 L 15.5625 -18.046875 C 14.894531 -18.753906 14.125 -19.285156 13.25 -19.640625 C 12.382812 -19.992188 11.390625 -20.171875 10.265625 -20.171875 C 8.972656 -20.171875 7.988281 -19.941406 7.3125 -19.484375 C 6.632812 -19.023438 6.296875 -18.394531 6.296875 -17.59375 C 6.296875 -16.84375 6.53125 -16.242188 7 -15.796875 C 7.476562 -15.347656 8.300781 -15 9.46875 -14.75 L 12.59375 -14.09375 C 14.914062 -13.601562 16.597656 -12.773438 17.640625 -11.609375 C 18.679688 -10.441406 19.203125 -8.914062 19.203125 -7.03125 C 19.203125 -5.539062 18.878906 -4.242188 18.234375 -3.140625 C 17.597656 -2.035156 16.628906 -1.175781 15.328125 -0.5625 C 14.035156 0.0390625 12.453125 0.34375 10.578125 0.34375 Z M 10.578125 0.34375 "/></g></g></g><g fill="#ffffff" fill-opacity="1"><g transform="translate(113.4517, 277.18731)"><g><path d="M 18.5 -14.890625 L 18.5 -23.859375 L 23.203125 -23.859375 L 23.203125 0 L 18.5 0 L 18.5 -10.875 L 7.8125 -10.875 L 7.8125 0 L 3.09375 0 L 3.09375 -23.859375 L 7.8125 -23.859375 L 7.8125 -14.890625 Z M 18.5 -14.890625 "/></g></g></g><g fill="#ffffff" fill-opacity="1"><g transform="translate(139.765465, 277.18731)"><g><path d="M 7.8125 -10.484375 L 7.8125 -3.953125 L 19.203125 -3.953125 L 19.203125 0 L 3.09375 0 L 3.09375 -23.859375 L 18.953125 -23.859375 L 18.953125 -19.90625 L 7.8125 -19.90625 L 7.8125 -14.328125 L 17.546875 -14.328125 L 17.546875 -10.484375 Z M 7.8125 -10.484375 "/></g></g></g><g fill="#ffffff" fill-opacity="1"><g transform="translate(160.271605, 277.18731)"><g><path d="M 7.8125 -23.859375 L 7.8125 -3.953125 L 18.53125 -3.953125 L 18.53125 0 L 3.09375 0 L 3.09375 -23.859375 Z M 7.8125 -23.859375 "/></g></g></g><g fill="#ffffff" fill-opacity="1"><g transform="translate(179.58685, 277.18731)"><g><path d="M 18.234375 -23.859375 L 18.234375 -19.90625 L 7.8125 -19.90625 L 7.8125 -13.59375 L 17.265625 -13.59375 L 17.265625 -9.6875 L 7.8125 -9.6875 L 7.8125 0 L 3.09375 0 L 3.09375 -23.859375 Z M 18.234375 -23.859375 "/></g></g></g><g fill="#ffffff" fill-opacity="1"><g transform="translate(198.869468, 277.18731)"><g><path d="M 11.390625 0 L 6.125 0 L 0.65625 -23.859375 L 5.359375 -23.859375 L 8.953125 -7.078125 L 9.375 -7.078125 L 13.640625 -23.859375 L 17.671875 -23.859375 L 22.03125 -7.078125 L 22.4375 -7.078125 L 26.0625 -23.859375 L 30.59375 -23.859375 L 25.140625 0 L 19.859375 0 L 15.6875 -15.390625 L 15.34375 -15.390625 Z M 11.390625 0 "/></g></g></g><g fill="#ffffff" fill-opacity="1"><g transform="translate(230.093606, 277.18731)"><g><path d="M 7.8125 0 L 3.09375 0 L 3.09375 -23.859375 L 7.8125 -23.859375 Z M 7.8125 0 "/></g></g></g><g fill="#ffffff" fill-opacity="1"><g transform="translate(241.023686, 277.18731)"><g><path d="M 10.578125 0.34375 C 8.921875 0.34375 7.445312 0.140625 6.15625 -0.265625 C 4.875 -0.671875 3.800781 -1.207031 2.9375 -1.875 C 2.070312 -2.539062 1.414062 -3.269531 0.96875 -4.0625 L 3.5625 -7.234375 L 3.96875 -7.234375 C 4.6875 -6.160156 5.597656 -5.304688 6.703125 -4.671875 C 7.804688 -4.046875 9.097656 -3.734375 10.578125 -3.734375 C 11.835938 -3.734375 12.785156 -4 13.421875 -4.53125 C 14.066406 -5.070312 14.390625 -5.804688 14.390625 -6.734375 C 14.390625 -7.304688 14.285156 -7.78125 14.078125 -8.15625 C 13.878906 -8.539062 13.539062 -8.867188 13.0625 -9.140625 C 12.582031 -9.410156 11.929688 -9.644531 11.109375 -9.84375 L 8.046875 -10.546875 C 5.898438 -11.035156 4.300781 -11.847656 3.25 -12.984375 C 2.207031 -14.117188 1.6875 -15.59375 1.6875 -17.40625 C 1.6875 -18.757812 2.019531 -19.945312 2.6875 -20.96875 C 3.363281 -21.988281 4.347656 -22.78125 5.640625 -23.34375 C 6.929688 -23.914062 8.472656 -24.203125 10.265625 -24.203125 C 12.097656 -24.203125 13.671875 -23.957031 14.984375 -23.46875 C 16.296875 -22.988281 17.40625 -22.25 18.3125 -21.25 L 15.984375 -18.046875 L 15.5625 -18.046875 C 14.894531 -18.753906 14.125 -19.285156 13.25 -19.640625 C 12.382812 -19.992188 11.390625 -20.171875 10.265625 -20.171875 C 8.972656 -20.171875 7.988281 -19.941406 7.3125 -19.484375 C 6.632812 -19.023438 6.296875 -18.394531 6.296875 -17.59375 C 6.296875 -16.84375 6.53125 -16.242188 7 -15.796875 C 7.476562 -15.347656 8.300781 -15 9.46875 -14.75 L 12.59375 -14.09375 C 14.914062 -13.601562 16.597656 -12.773438 17.640625 -11.609375 C 18.679688 -10.441406 19.203125 -8.914062 19.203125 -7.03125 C 19.203125 -5.539062 18.878906 -4.242188 18.234375 -3.140625 C 17.597656 -2.035156 16.628906 -1.175781 15.328125 -0.5625 C 14.035156 0.0390625 12.453125 0.34375 10.578125 0.34375 Z M 10.578125 0.34375 "/></g></g></g><g fill="#ffffff" fill-opacity="1"><g transform="translate(261.513507, 277.18731)"><g><path d="M 7.8125 -10.484375 L 7.8125 -3.953125 L 19.203125 -3.953125 L 19.203125 0 L 3.09375 0 L 3.09375 -23.859375 L 18.953125 -23.859375 L 18.953125 -19.90625 L 7.8125 -19.90625 L 7.8125 -14.328125 L 17.546875 -14.328125 L 17.546875 -10.484375 Z M 7.8125 -10.484375 "/></g></g></g></svg>